<svg xmlns="http://www.w3.org/2000/svg" width="16" height="16" viewBox="0 0 16 16" fill="none">
  <g clip-path="url(#clip0_1790_379)">
    <mask id="mask0_1790_379" style="mask-type:luminance" maskUnits="userSpaceOnUse" x="-1" y="0" width="17" height="17">
      <path d="M-0.00195312 0.000244141H15.9981V16.0002H-0.00185312L-0.00195312 0.000244141Z" fill="white"/>
    </mask>
    <g mask="url(#mask0_1790_379)">
      <path d="M13.0004 7.99932C13.0004 10.7603 10.7622 12.9985 8.00116 12.9985C5.24021 12.9985 3.00195 10.7603 3.00195 7.99932C3.00195 5.23838 5.24021 3.00012 8.00116 3.00012C10.7622 3.00012 13.0004 5.23838 13.0004 7.99932Z" fill="url(#paint0_linear_1790_379)"/>
      <path d="M13.0011 7.99895C13.0011 10.7598 10.7632 12.9979 8.00248 12.9979C5.24185 12.9979 3.00391 10.7598 3.00391 7.99895C3.00391 5.23813 5.24185 3 8.00248 3C10.7632 3 13.0011 5.23813 13.0011 7.99895Z" fill="url(#paint1_radial_1790_379)"/>
      <mask id="mask1_1790_379" style="mask-type:alpha" maskUnits="userSpaceOnUse" x="7" y="11" width="5" height="2">
        <path d="M11.5034 11.5635C10.6011 12.4511 9.36337 12.9987 7.99771 12.9987C7.66797 12.9988 7.33903 12.9665 7.01562 12.9023C7.4467 12.7231 8.03758 12.4418 8.60526 12.0792C9.40474 12.4101 10.7818 12.2301 11.4978 11.5588L11.5034 11.5635Z" fill="#D9D9D9"/>
      </mask>
      <g mask="url(#mask1_1790_379)">
        <path d="M12.9984 7.99932C12.9984 10.7603 10.7602 12.9985 7.9992 12.9985C5.23825 12.9985 3 10.7603 3 7.99932C3 5.23838 5.23825 3.00012 7.9992 3.00012C10.7602 3.00012 12.9984 5.23838 12.9984 7.99932Z" fill="url(#paint2_linear_1790_379)"/>
      </g>
      <path d="M12.9984 7.9992C12.9984 10.7601 10.7602 12.9984 7.99926 12.9984C5.23832 12.9984 3 10.7601 3 7.9992C3 5.23825 5.23825 3 7.99926 3C10.7602 3 12.9984 5.23819 12.9984 7.9992Z" fill="url(#paint3_radial_1790_379)"/>
      <path d="M12.9984 7.9992C12.9984 10.7601 10.7602 12.9984 7.99926 12.9984C5.23832 12.9984 3 10.7601 3 7.9992C3 5.23825 5.23825 3 7.99926 3C10.7602 3 12.9984 5.23819 12.9984 7.9992Z" fill="url(#paint4_radial_1790_379)"/>
      <path style="mix-blend-mode:multiply" d="M12.9984 7.9992C12.9984 10.7601 10.7602 12.9984 7.99926 12.9984C5.23832 12.9984 3 10.7601 3 7.9992C3 5.23825 5.23825 3 7.99926 3C10.7602 3 12.9984 5.23819 12.9984 7.9992Z" fill="url(#paint5_radial_1790_379)"/>
      <path style="mix-blend-mode:multiply" d="M12.9984 7.9992C12.9984 10.7601 10.7602 12.9984 7.99926 12.9984C5.23832 12.9984 3 10.7601 3 7.9992C3 5.23825 5.23825 3 7.99926 3C10.7602 3 12.9984 5.23819 12.9984 7.9992Z" fill="url(#paint6_radial_1790_379)"/>
      <path fill-rule="evenodd" clip-rule="evenodd" d="M8.99222 7.8673C8.99766 7.86805 9.00307 7.86895 9.00847 7.86999C9.47165 7.95998 9.88017 8.23015 10.1443 8.62115C10.275 8.81461 10.3662 9.03193 10.4129 9.26068C10.4595 9.48944 10.4606 9.72515 10.4161 9.95432C10.2623 10.7458 9.58547 11.4002 8.89723 11.8845C8.19362 12.3796 7.40202 12.7493 6.89645 12.9514C6.77582 12.9998 6.64378 13.0124 6.51618 12.9876C6.38858 12.9628 6.27085 12.9017 6.17715 12.8116C5.78413 12.4349 5.18864 11.7955 4.72169 11.0728C4.26505 10.366 3.88272 9.50575 4.03657 8.71427C4.08114 8.4851 4.17044 8.26695 4.29937 8.07232C4.42831 7.87768 4.59435 7.71037 4.78799 7.57996C5.17934 7.31639 5.65931 7.21893 6.12247 7.30899C6.12809 7.31009 6.13367 7.31134 6.13922 7.31274C6.48953 7.40116 6.80647 7.5898 7.05124 7.85555C7.15417 7.96729 7.28953 8.15883 7.40845 8.39462C7.60562 8.22082 7.80191 8.0934 7.94127 8.02753C8.26851 7.87291 8.63377 7.81722 8.99222 7.8673Z" fill="url(#paint7_radial_1790_379)"/>
      <path fill-rule="evenodd" clip-rule="evenodd" d="M8.99222 7.8673C8.99766 7.86805 9.00307 7.86895 9.00847 7.86999C9.47165 7.95998 9.88017 8.23015 10.1443 8.62115C10.275 8.81461 10.3662 9.03193 10.4129 9.26068C10.4595 9.48944 10.4606 9.72515 10.4161 9.95432C10.2623 10.7458 9.58547 11.4002 8.89723 11.8845C8.19362 12.3796 7.40202 12.7493 6.89645 12.9514C6.77582 12.9998 6.64378 13.0124 6.51618 12.9876C6.38858 12.9628 6.27085 12.9017 6.17715 12.8116C5.78413 12.4349 5.18864 11.7955 4.72169 11.0728C4.26505 10.366 3.88272 9.50575 4.03657 8.71427C4.08114 8.4851 4.17044 8.26695 4.29937 8.07232C4.42831 7.87768 4.59435 7.71037 4.78799 7.57996C5.17934 7.31639 5.65931 7.21893 6.12247 7.30899C6.12809 7.31009 6.13367 7.31134 6.13922 7.31274C6.48953 7.40116 6.80647 7.5898 7.05124 7.85555C7.15417 7.96729 7.28953 8.15883 7.40845 8.39462C7.60562 8.22082 7.80191 8.0934 7.94127 8.02753C8.26851 7.87291 8.63377 7.81722 8.99222 7.8673Z" fill="url(#paint8_radial_1790_379)"/>
      <path fill-rule="evenodd" clip-rule="evenodd" d="M8.99222 7.8673C8.99766 7.86805 9.00307 7.86895 9.00847 7.86999C9.47165 7.95998 9.88017 8.23015 10.1443 8.62115C10.275 8.81461 10.3662 9.03193 10.4129 9.26068C10.4595 9.48944 10.4606 9.72515 10.4161 9.95432C10.2623 10.7458 9.58547 11.4002 8.89723 11.8845C8.19362 12.3796 7.40202 12.7493 6.89645 12.9514C6.77582 12.9998 6.64378 13.0124 6.51618 12.9876C6.38858 12.9628 6.27085 12.9017 6.17715 12.8116C5.78413 12.4349 5.18864 11.7955 4.72169 11.0728C4.26505 10.366 3.88272 9.50575 4.03657 8.71427C4.08114 8.4851 4.17044 8.26695 4.29937 8.07232C4.42831 7.87768 4.59435 7.71037 4.78799 7.57996C5.17934 7.31639 5.65931 7.21893 6.12247 7.30899C6.12809 7.31009 6.13367 7.31134 6.13922 7.31274C6.48953 7.40116 6.80647 7.5898 7.05124 7.85555C7.15417 7.96729 7.28953 8.15883 7.40845 8.39462C7.60562 8.22082 7.80191 8.0934 7.94127 8.02753C8.26851 7.87291 8.63377 7.81722 8.99222 7.8673Z" fill="url(#paint9_radial_1790_379)"/>
      <mask id="mask2_1790_379" style="mask-type:alpha" maskUnits="userSpaceOnUse" x="3" y="3" width="10" height="10">
        <path d="M7.9992 12.9986C10.7602 12.9986 12.9984 10.7604 12.9984 7.99945C12.9984 5.23846 10.7602 3.00024 7.9992 3.00024C5.23822 3.00024 3 5.23846 3 7.99945C3 10.7604 5.23822 12.9986 7.9992 12.9986Z" fill="white"/>
      </mask>
      <g mask="url(#mask2_1790_379)">
        <path fill-rule="evenodd" clip-rule="evenodd" d="M3.84957 7.7616C3.52323 7.44101 3.19951 7.56163 3.07453 7.9742C2.94954 8.38685 3.04247 9.53372 3.72614 10.0966C5.44595 11.5128 7.14077 10.6349 7.1752 9.7687C7.20632 8.98928 6.32811 9.07315 6.04239 9.08883C6.02295 9.08996 6.01458 9.06309 6.03127 9.05246C6.09126 9.01334 6.18969 8.94504 6.29361 8.85717C6.51821 8.66694 6.40316 8.33685 6.08963 8.4314C6.04239 8.4454 5.27922 8.67538 4.79559 8.49184C4.24702 8.28367 4.18197 8.08782 3.84957 7.7616Z" fill="#FFF287"/>
        <path fill-rule="evenodd" clip-rule="evenodd" d="M3.84957 7.7616C3.52323 7.44101 3.19951 7.56163 3.07453 7.9742C2.94954 8.38685 3.04247 9.53372 3.72614 10.0966C5.44595 11.5128 7.14077 10.6349 7.1752 9.7687C7.20632 8.98928 6.32811 9.07315 6.04239 9.08883C6.02295 9.08996 6.01458 9.06309 6.03127 9.05246C6.09126 9.01334 6.18969 8.94504 6.29361 8.85717C6.51821 8.66694 6.40316 8.33685 6.08963 8.4314C6.04239 8.4454 5.27922 8.67538 4.79559 8.49184C4.24702 8.28367 4.18197 8.08782 3.84957 7.7616Z" fill="url(#paint10_linear_1790_379)"/>
        <path fill-rule="evenodd" clip-rule="evenodd" d="M3.84957 7.7616C3.52323 7.44101 3.19951 7.56163 3.07453 7.9742C2.94954 8.38685 3.04247 9.53372 3.72614 10.0966C5.44595 11.5128 7.14077 10.6349 7.1752 9.7687C7.20632 8.98928 6.32811 9.07315 6.04239 9.08883C6.02295 9.08996 6.01458 9.06309 6.03127 9.05246C6.09126 9.01334 6.18969 8.94504 6.29361 8.85717C6.51821 8.66694 6.40316 8.33685 6.08963 8.4314C6.04239 8.4454 5.27922 8.67538 4.79559 8.49184C4.24702 8.28367 4.18197 8.08782 3.84957 7.7616Z" fill="url(#paint11_radial_1790_379)" fill-opacity="0.6"/>
        <path fill-rule="evenodd" clip-rule="evenodd" d="M3.84957 7.7616C3.52323 7.44101 3.19951 7.56163 3.07453 7.9742C2.94954 8.38685 3.04247 9.53372 3.72614 10.0966C5.44595 11.5128 7.14077 10.6349 7.1752 9.7687C7.20632 8.98928 6.32811 9.07315 6.04239 9.08883C6.02295 9.08996 6.01458 9.06309 6.03127 9.05246C6.09126 9.01334 6.18969 8.94504 6.29361 8.85717C6.51821 8.66694 6.40316 8.33685 6.08963 8.4314C6.04239 8.4454 5.27922 8.67538 4.79559 8.49184C4.24702 8.28367 4.18197 8.08782 3.84957 7.7616Z" fill="url(#paint12_radial_1790_379)"/>
        <path fill-rule="evenodd" clip-rule="evenodd" d="M3.84957 7.7616C3.52323 7.44101 3.19951 7.56163 3.07453 7.9742C2.94954 8.38685 3.04247 9.53372 3.72614 10.0966C5.44595 11.5128 7.14077 10.6349 7.1752 9.7687C7.20632 8.98928 6.32811 9.07315 6.04239 9.08883C6.02295 9.08996 6.01458 9.06309 6.03127 9.05246C6.09126 9.01334 6.18969 8.94504 6.29361 8.85717C6.51821 8.66694 6.40316 8.33685 6.08963 8.4314C6.04239 8.4454 5.27922 8.67538 4.79559 8.49184C4.24702 8.28367 4.18197 8.08782 3.84957 7.7616Z" fill="url(#paint13_radial_1790_379)"/>
        <path fill-rule="evenodd" clip-rule="evenodd" d="M3.84957 7.7616C3.52323 7.44101 3.19951 7.56163 3.07453 7.9742C2.94954 8.38685 3.04247 9.53372 3.72614 10.0966C5.44595 11.5128 7.14077 10.6349 7.1752 9.7687C7.20632 8.98928 6.32811 9.07315 6.04239 9.08883C6.02295 9.08996 6.01458 9.06309 6.03127 9.05246C6.09126 9.01334 6.18969 8.94504 6.29361 8.85717C6.51821 8.66694 6.40316 8.33685 6.08963 8.4314C6.04239 8.4454 5.27922 8.67538 4.79559 8.49184C4.24702 8.28367 4.18197 8.08782 3.84957 7.7616Z" fill="url(#paint14_radial_1790_379)"/>
        <path fill-rule="evenodd" clip-rule="evenodd" d="M11.9277 7.84836C12.1243 7.37435 12.1243 7.12438 12.3742 6.99939C12.6242 6.87441 12.9991 7.24937 12.9991 7.99928C12.9991 9.24902 12.4992 10.6213 11.4994 11.5586C10.4995 12.496 8.21061 12.4753 8.00563 11.4433C7.83522 10.5875 8.73662 10.5023 9.02627 10.4616C9.04602 10.4588 9.0499 10.4277 9.03121 10.4193C8.92905 10.3711 8.83011 10.3164 8.73499 10.2555C8.47721 10.0901 8.53651 9.70116 8.86685 9.7429C9.24119 9.79996 9.70395 9.90832 10.103 9.8677C11.2572 9.74972 11.731 8.32237 11.9277 7.84836Z" fill="#FFF287"/>
        <path fill-rule="evenodd" clip-rule="evenodd" d="M11.9277 7.84836C12.1243 7.37435 12.1243 7.12438 12.3742 6.99939C12.6242 6.87441 12.9991 7.24937 12.9991 7.99928C12.9991 9.24902 12.4992 10.6213 11.4994 11.5586C10.4995 12.496 8.21061 12.4753 8.00563 11.4433C7.83522 10.5875 8.73662 10.5023 9.02627 10.4616C9.04602 10.4588 9.0499 10.4277 9.03121 10.4193C8.92905 10.3711 8.83011 10.3164 8.73499 10.2555C8.47721 10.0901 8.53651 9.70116 8.86685 9.7429C9.24119 9.79996 9.70395 9.90832 10.103 9.8677C11.2572 9.74972 11.731 8.32237 11.9277 7.84836Z" fill="url(#paint15_linear_1790_379)"/>
        <path fill-rule="evenodd" clip-rule="evenodd" d="M11.9277 7.84836C12.1243 7.37435 12.1243 7.12438 12.3742 6.99939C12.6242 6.87441 12.9991 7.24937 12.9991 7.99928C12.9991 9.24902 12.4992 10.6213 11.4994 11.5586C10.4995 12.496 8.21061 12.4753 8.00563 11.4433C7.83522 10.5875 8.73662 10.5023 9.02627 10.4616C9.04602 10.4588 9.0499 10.4277 9.03121 10.4193C8.92905 10.3711 8.83011 10.3164 8.73499 10.2555C8.47721 10.0901 8.53651 9.70116 8.86685 9.7429C9.24119 9.79996 9.70395 9.90832 10.103 9.8677C11.2572 9.74972 11.731 8.32237 11.9277 7.84836Z" fill="url(#paint16_radial_1790_379)" fill-opacity="0.8"/>
        <path fill-rule="evenodd" clip-rule="evenodd" d="M11.9277 7.84836C12.1243 7.37435 12.1243 7.12438 12.3742 6.99939C12.6242 6.87441 12.9991 7.24937 12.9991 7.99928C12.9991 9.24902 12.4992 10.6213 11.4994 11.5586C10.4995 12.496 8.21061 12.4753 8.00563 11.4433C7.83522 10.5875 8.73662 10.5023 9.02627 10.4616C9.04602 10.4588 9.0499 10.4277 9.03121 10.4193C8.92905 10.3711 8.83011 10.3164 8.73499 10.2555C8.47721 10.0901 8.53651 9.70116 8.86685 9.7429C9.24119 9.79996 9.70395 9.90832 10.103 9.8677C11.2572 9.74972 11.731 8.32237 11.9277 7.84836Z" fill="url(#paint17_radial_1790_379)"/>
        <path style="mix-blend-mode:screen" fill-rule="evenodd" clip-rule="evenodd" d="M11.9277 7.84836C12.1243 7.37435 12.1243 7.12438 12.3742 6.99939C12.6242 6.87441 12.9991 7.24937 12.9991 7.99928C12.9991 9.24902 12.4992 10.6213 11.4994 11.5586C10.4995 12.496 8.21061 12.4753 8.00563 11.4433C7.83522 10.5875 8.73662 10.5023 9.02627 10.4616C9.04602 10.4588 9.0499 10.4277 9.03121 10.4193C8.92905 10.3711 8.83011 10.3164 8.73499 10.2555C8.47721 10.0901 8.53651 9.70116 8.86685 9.7429C9.24119 9.79996 9.70395 9.90832 10.103 9.8677C11.2572 9.74972 11.731 8.32237 11.9277 7.84836Z" fill="url(#paint18_radial_1790_379)" fill-opacity="0.9"/>
      </g>
      <path d="M7.99989 7.24958C8.44359 7.24958 8.7325 7.17684 8.93429 7.10391C9.1257 7.03466 9.18426 6.84487 8.98428 6.80632C8.79936 6.77063 8.49415 6.74963 7.99995 6.74963C7.51544 6.74963 7.19923 6.77101 7.00612 6.81138C6.81333 6.85175 6.86645 7.03529 7.05174 7.10222C7.25528 7.17577 7.55269 7.24958 7.99989 7.24958Z" fill="#4B280E"/>
      <path fill-rule="evenodd" clip-rule="evenodd" d="M9.34506 4.30781C9.80403 4.31234 10.2492 4.46562 10.6136 4.74463C10.6663 4.78437 10.7325 4.80166 10.7979 4.79274C10.8633 4.78382 10.9225 4.74941 10.9626 4.69702C11.0027 4.64462 11.0205 4.57849 11.012 4.51305C11.0036 4.44761 10.9696 4.38816 10.9175 4.34768C10.4672 4.00292 9.91713 3.81353 9.35 3.80792C9.31692 3.80719 9.28402 3.81303 9.25322 3.8251C9.22241 3.83718 9.19431 3.85525 9.17054 3.87826C9.14678 3.90128 9.12781 3.92879 9.11476 3.95919C9.1017 3.98959 9.09481 4.02228 9.09448 4.05537C9.09415 4.08845 9.1004 4.12127 9.11285 4.15192C9.12531 4.18258 9.14372 4.21045 9.16703 4.23394C9.19034 4.25742 9.21808 4.27604 9.24864 4.28872C9.2792 4.3014 9.31197 4.30789 9.34506 4.30781ZM6.65185 4.30781C6.19286 4.31233 5.74772 4.46561 5.38324 4.74463C5.35723 4.76514 5.3274 4.78027 5.29548 4.78915C5.26356 4.79803 5.2302 4.80048 5.19733 4.79635C5.16447 4.79222 5.13274 4.7816 5.10402 4.7651C5.07529 4.74861 5.05012 4.72657 5.02999 4.70026C5.00985 4.67396 4.99515 4.64391 4.98673 4.61187C4.97831 4.57983 4.97634 4.54644 4.98093 4.51363C4.98553 4.48082 4.99661 4.44926 5.01351 4.42077C5.03041 4.39228 5.05281 4.36743 5.0794 4.34768C5.52975 4.00291 6.07978 3.81352 6.64692 3.80792C6.67999 3.80719 6.71289 3.81302 6.74369 3.8251C6.77449 3.83717 6.80259 3.85524 6.82636 3.87825C6.85013 3.90126 6.86909 3.92877 6.88215 3.95917C6.89521 3.98956 6.90211 4.02225 6.90244 4.05533C6.90277 4.08842 6.89653 4.12124 6.88408 4.15189C6.87163 4.18254 6.85322 4.21042 6.82992 4.2339C6.80662 4.25739 6.77888 4.27601 6.74833 4.2887C6.71777 4.30139 6.68494 4.30788 6.65185 4.30781Z" fill="#E0761A"/>
      <path fill-rule="evenodd" clip-rule="evenodd" d="M9.24949 5.72321C9.24887 6.17553 9.55133 6.30814 9.99935 6.36251C10.443 6.42651 10.7416 6.2389 10.7491 5.72321C10.7554 5.28944 10.5111 4.76 9.99935 4.74988C9.48759 4.76 9.24949 5.28944 9.24949 5.72321ZM6.74977 5.72321C6.75039 6.17553 6.44792 6.30814 5.99997 6.36251C5.55627 6.42651 5.25762 6.2389 5.25012 5.72321C5.24387 5.28944 5.48822 4.76 5.99997 4.74988C6.51173 4.76 6.74977 5.28944 6.74977 5.72321Z" fill="#1C1C1D"/>
    </g>
  </g>
  <defs>
    <linearGradient id="paint0_linear_1790_379" x1="4.56609" y1="4.56245" x2="13.0027" y2="12.999" gradientUnits="userSpaceOnUse">
      <stop offset="0.2619" stop-color="#FFF287"/>
      <stop offset="1" stop-color="#F68628"/>
    </linearGradient>
    <radialGradient id="paint1_radial_1790_379" cx="0" cy="0" r="1" gradientUnits="userSpaceOnUse" gradientTransform="translate(8.00248 7.99895) rotate(90) scale(4.99895 4.9986)">
      <stop offset="0.5637" stop-color="#FF5758" stop-opacity="0"/>
      <stop offset="1" stop-color="#FF5758" stop-opacity="0.1"/>
    </radialGradient>
    <linearGradient id="paint2_linear_1790_379" x1="9.24994" y1="12.0616" x2="9.24994" y2="13.624" gradientUnits="userSpaceOnUse">
      <stop stop-color="#FFF287" stop-opacity="0"/>
      <stop offset="1" stop-color="#FFF287"/>
    </linearGradient>
    <radialGradient id="paint3_radial_1790_379" cx="0" cy="0" r="1" gradientUnits="userSpaceOnUse" gradientTransform="translate(9.67846 11.7092) rotate(-85.6013) scale(1.00467 2.79295)">
      <stop stop-color="#791119" stop-opacity="0.7"/>
      <stop offset="1" stop-color="#791119" stop-opacity="0"/>
    </radialGradient>
    <radialGradient id="paint4_radial_1790_379" cx="0" cy="0" r="1" gradientUnits="userSpaceOnUse" gradientTransform="translate(11.1102 9.9123) rotate(65.4643) scale(1.39835 9.15631)">
      <stop stop-color="#791119" stop-opacity="0.08"/>
      <stop offset="1" stop-color="#791119" stop-opacity="0"/>
    </radialGradient>
    <radialGradient id="paint5_radial_1790_379" cx="0" cy="0" r="1" gradientUnits="userSpaceOnUse" gradientTransform="translate(4.87667 9.87425) rotate(-75.9638) scale(1.28833 1.85088)">
      <stop offset="0.2088" stop-color="#791119" stop-opacity="0.4"/>
      <stop offset="1" stop-color="#791119" stop-opacity="0"/>
    </radialGradient>
    <radialGradient id="paint6_radial_1790_379" cx="0" cy="0" r="1" gradientUnits="userSpaceOnUse" gradientTransform="translate(4.25174 9.24932) rotate(-33.6901) scale(1.12661 1.61854)">
      <stop offset="0.2088" stop-color="#791119" stop-opacity="0.3"/>
      <stop offset="1" stop-color="#791119" stop-opacity="0"/>
    </radialGradient>
    <radialGradient id="paint7_radial_1790_379" cx="0" cy="0" r="1" gradientUnits="userSpaceOnUse" gradientTransform="translate(5.62571 8.8745) rotate(49.7636) scale(4.25692 5.0309)">
      <stop offset="0.3729" stop-color="#FA2E3E"/>
      <stop offset="0.9266" stop-color="#E11731"/>
    </radialGradient>
    <radialGradient id="paint8_radial_1790_379" cx="0" cy="0" r="1" gradientUnits="userSpaceOnUse" gradientTransform="translate(5.57149 10.1436) rotate(-92.693) scale(1.08064 1.57775)">
      <stop stop-color="#791119" stop-opacity="0.9"/>
      <stop offset="1" stop-color="#791119" stop-opacity="0"/>
    </radialGradient>
    <radialGradient id="paint9_radial_1790_379" cx="0" cy="0" r="1" gradientUnits="userSpaceOnUse" gradientTransform="translate(9.31723 11.7203) rotate(-65.627) scale(1.21295 1.77093)">
      <stop stop-color="#791119" stop-opacity="0.9"/>
      <stop offset="1" stop-color="#791119" stop-opacity="0"/>
    </radialGradient>
    <linearGradient id="paint10_linear_1790_379" x1="5.75767" y1="7.12349" x2="4.64254" y2="9.24019" gradientUnits="userSpaceOnUse">
      <stop stop-color="#FFF287"/>
      <stop offset="1" stop-color="#F68628" stop-opacity="0.3"/>
    </linearGradient>
    <radialGradient id="paint11_radial_1790_379" cx="0" cy="0" r="1" gradientUnits="userSpaceOnUse" gradientTransform="translate(5.91731 7.57902) rotate(93.472) scale(2.50002 5.52585)">
      <stop stop-color="#FFF287" stop-opacity="0"/>
      <stop offset="0.9846" stop-color="#FF5758" stop-opacity="0.8"/>
    </radialGradient>
    <radialGradient id="paint12_radial_1790_379" cx="0" cy="0" r="1" gradientUnits="userSpaceOnUse" gradientTransform="translate(6.66242 6.29664) rotate(131.396) scale(4.98782 5.26222)">
      <stop offset="0.6481" stop-color="#FFE480"/>
      <stop offset="0.9167" stop-color="#FFE480" stop-opacity="0"/>
    </radialGradient>
    <radialGradient id="paint13_radial_1790_379" cx="0" cy="0" r="1" gradientUnits="userSpaceOnUse" gradientTransform="translate(5.78468 7.68149) rotate(115.036) scale(3.25443 2.82)">
      <stop offset="0.9124" stop-color="#FFE480" stop-opacity="0"/>
      <stop offset="1" stop-color="#FFE480"/>
    </radialGradient>
    <radialGradient id="paint14_radial_1790_379" cx="0" cy="0" r="1" gradientUnits="userSpaceOnUse" gradientTransform="translate(3.00079 7.68699) rotate(48.9378) scale(1.29106 2.71704)">
      <stop stop-color="#FFE483"/>
      <stop offset="0.9167" stop-color="#FFEB80" stop-opacity="0"/>
    </radialGradient>
    <linearGradient id="paint15_linear_1790_379" x1="7.98439" y1="10.797" x2="14.5309" y2="11.6788" gradientUnits="userSpaceOnUse">
      <stop offset="0.0835" stop-color="#FFF287"/>
      <stop offset="1" stop-color="#F68628"/>
    </linearGradient>
    <radialGradient id="paint16_radial_1790_379" cx="0" cy="0" r="1" gradientUnits="userSpaceOnUse" gradientTransform="translate(10.6189 8.99928) rotate(38.267) scale(2.46672 11.8371)">
      <stop stop-color="#FFF287" stop-opacity="0"/>
      <stop offset="0.7371" stop-color="#FF5758" stop-opacity="0.4"/>
    </radialGradient>
    <radialGradient id="paint17_radial_1790_379" cx="0" cy="0" r="1" gradientUnits="userSpaceOnUse" gradientTransform="translate(9.56378 7.99947) rotate(41.2402) scale(2.44011 2.74887)">
      <stop offset="0.8254" stop-color="#FFE480"/>
      <stop offset="1" stop-color="#FFE480" stop-opacity="0"/>
    </radialGradient>
    <radialGradient id="paint18_radial_1790_379" cx="0" cy="0" r="1" gradientUnits="userSpaceOnUse" gradientTransform="translate(9.87624 8.6244) rotate(29.0546) scale(3.21703 4.10314)">
      <stop offset="0.897" stop-color="#FFE480" stop-opacity="0"/>
      <stop offset="1" stop-color="#FFE480"/>
    </radialGradient>
    <clipPath id="clip0_1790_379">
      <rect width="16" height="16" fill="white"/>
    </clipPath>
  </defs>
</svg>